<?xml version="1.0" encoding="UTF-8"?>
<svg id="Layer_1" data-name="Layer 1" xmlns="http://www.w3.org/2000/svg" viewBox="0 0 1080 1080">
  <path d="M381.13,562.5v198.66h103.28l131.62-.08v-263.4c0,8.59-6.21,15.7-13.72,15.7s-13.47-6.75-13.76-15.1h.29c-1.52-1.56-1.84-22.01-1.84-22.01l.76-67.78c-.4-24.52-5.99-47.73-15.31-69.46-16.36-38.14-48.64-58.19-86.27-58.27-79.98-.2-110.75,70.69-123.75,146.7-6.97,40.78-9.1,80.92-10.18,122.46v6.52c0-9.62,6.61-15.63,14.66-15.63s14.63,7.95,14.63,17.57l-.4,4.11h0Z"/>
  <path d="M643.1,479.65c0-8.63-6.17-15.7-13.72-15.7-5.92,0-11.05,4.35-12.93,10.42l9.79-49.8c6.36-32.43,17.62-62.07,34.52-88.99,22.71-36.11,56.91-55.83,96.49-57.43,80.92-3.24,113.03,78.84,118.95,156.08l.22,324.15v.04h-230.14v-224.38l-2.42-40.58-.76-13.82h0Z"/>
  <path d="M589.24,498.28c-.14.16-.29.16-.4,0h.4Z"/>
  <path d="M317.58,574c1.73-26.28,7.55-71.09,7.91-97.89.76-57.43-.18-113.31-4.98-171.14l-131.08.24.07,455.91,149.19.24c1.95-61.83,3.86-103.64,5.81-165.47.1-5.77.24-12.11.44-18.91-.81,7.97-7.06,14.09-14.33,13.72-7.58-.39-13.53-7.67-13.17-16.13,0-.05,0-.09,0-.13l.14-.44h0Z"/>
</svg>